<svg width="32" height="34" viewBox="0 0 32 34" fill="none" xmlns="http://www.w3.org/2000/svg">
<path d="M22.25 10.0938C22.25 10.2398 22.1375 10.3594 22 10.3594H20.25C20.1125 10.3594 20 10.2398 20 10.0938V8.5H12V10.0938C12 10.2398 11.8875 10.3594 11.75 10.3594H10C9.8625 10.3594 9.75 10.2398 9.75 10.0938V8.5H5.75V13.0156H26.25V8.5H22.25V10.0938Z" fill="#B1C9F9"/>
<path d="M27.5 6.10938H22.25V3.98438C22.25 3.83828 22.1375 3.71875 22 3.71875H20.25C20.1125 3.71875 20 3.83828 20 3.98438V6.10938H12V3.98438C12 3.83828 11.8875 3.71875 11.75 3.71875H10C9.8625 3.71875 9.75 3.83828 9.75 3.98438V6.10938H4.5C3.94687 6.10938 3.5 6.58418 3.5 7.17188V29.2188C3.5 29.8064 3.94687 30.2812 4.5 30.2812H27.5C28.0531 30.2812 28.5 29.8064 28.5 29.2188V7.17188C28.5 6.58418 28.0531 6.10938 27.5 6.10938ZM26.25 27.8906H5.75V15.2734H26.25V27.8906ZM26.25 13.0156H5.75V8.5H9.75V10.0938C9.75 10.2398 9.8625 10.3594 10 10.3594H11.75C11.8875 10.3594 12 10.2398 12 10.0938V8.5H20V10.0938C20 10.2398 20.1125 10.3594 20.25 10.3594H22C22.1375 10.3594 22.25 10.2398 22.25 10.0938V8.5H26.25V13.0156Z" fill="#1E85FE"/>
</svg>
